<mxfile host="65bd71144e">
    <diagram id="pyFOITWGm1L5QSNy7el4" name="Page-1">
        <mxGraphModel dx="1622" dy="801" grid="0" gridSize="10" guides="1" tooltips="1" connect="1" arrows="1" fold="1" page="0" pageScale="1" pageWidth="850" pageHeight="1100" background="#ffffff" math="0" shadow="0">
            <root>
                <mxCell id="0"/>
                <mxCell id="1" parent="0"/>
                <mxCell id="47" value="API Management" style="aspect=fixed;html=1;points=[];align=center;image;fontSize=12;image=img/lib/azure2/app_services/API_Management_Services.svg;" parent="1" vertex="1">
                    <mxGeometry x="277" y="359" width="65" height="60" as="geometry"/>
                </mxCell>
                <mxCell id="48" value="OpenAIリクエスト" style="endArrow=classic;html=1;entryX=-0.015;entryY=0.533;entryDx=0;entryDy=0;entryPerimeter=0;verticalAlign=bottom;" parent="1" target="47" edge="1">
                    <mxGeometry width="50" height="50" relative="1" as="geometry">
                        <mxPoint x="125" y="391" as="sourcePoint"/>
                        <mxPoint x="480" y="495" as="targetPoint"/>
                    </mxGeometry>
                </mxCell>
                <mxCell id="51" value="" style="group" parent="1" vertex="1" connectable="0">
                    <mxGeometry x="662" y="238" width="222" height="51" as="geometry"/>
                </mxCell>
                <mxCell id="49" value="Azure OpenAI&#10;EastUS" style="shape=image;verticalLabelPosition=bottom;labelBackgroundColor=#00CC00;verticalAlign=top;aspect=fixed;imageAspect=0;image=data:image/svg+xml,PHN2ZyB4bWxucz0iaHR0cDovL3d3dy53My5vcmcvMjAwMC9zdmciIHZpZXdCb3g9IjAgMCAxOCAxOCIgaGVpZ2h0PSIxOCIgd2lkdGg9IjE4IiBpZD0idXVpZC1hZGJkYWU4ZS01YTQxLTQ2ZDEtOGMxOC1hYTczY2RiZmVlMzIiPjxkZWZzPjxyYWRpYWxHcmFkaWVudCBncmFkaWVudFVuaXRzPSJ1c2VyU3BhY2VPblVzZSIgZ3JhZGllbnRUcmFuc2Zvcm09InRyYW5zbGF0ZSgtMTc5MzkuMDMgMjAzNjguMDI5KSByb3RhdGUoNDUpIHNjYWxlKDI1LjA5MSAtMzQuMTQ5KSIgcj0iLjQ1IiBjeT0iNzkzLjE5OSIgY3g9Ii02Ny45ODEiIGlkPSJ1dWlkLTJhNzQwN2FhLWI3ODctNDhkZC1hOTZhLTBkODFhYjZlOTNiYiI+PHN0b3Agc3RvcC1jb2xvcj0iIzgzYjlmOSIgb2Zmc2V0PSIwIi8+PHN0b3Agc3RvcC1jb2xvcj0iIzAwNzhkNCIgb2Zmc2V0PSIxIi8+PC9yYWRpYWxHcmFkaWVudD48L2RlZnM+PHBhdGggc3Ryb2tlLXdpZHRoPSIwIiBmaWxsPSJ1cmwoI3V1aWQtMmE3NDA3YWEtYjc4Ny00OGRkLWE5NmEtMGQ4MWFiNmU5M2JiKSIgZD0ibTAsMi43djEyLjZjMCwxLjQ5MSwxLjIwOSwyLjcsMi43LDIuN2gxMi42YzEuNDkxLDAsMi43LTEuMjA5LDIuNy0yLjdWMi43YzAtMS40OTEtMS4yMDktMi43LTIuNy0yLjdIMi43QzEuMjA5LDAsMCwxLjIwOSwwLDIuN1pNMTAuOCwwdjMuNmMwLDMuOTc2LDMuMjI0LDcuMiw3LjIsNy4yaC0zLjZjLTMuOTc2LDAtNy4xOTksMy4yMjItNy4yLDcuMTk4di0zLjU5OGMwLTMuOTc2LTMuMjI0LTcuMi03LjItNy4yaDMuNmMzLjk3NiwwLDcuMi0zLjIyNCw3LjItNy4yWiIvPjwvc3ZnPg==;fontColor=#000000;" parent="51" vertex="1">
                    <mxGeometry width="51" height="51" as="geometry"/>
                </mxCell>
                <mxCell id="50" value="トークン制限(TPM)：8K&lt;br&gt;重み(Weight)：600" style="text;strokeColor=none;align=left;fillColor=none;html=1;verticalAlign=middle;whiteSpace=wrap;rounded=0;" parent="51" vertex="1">
                    <mxGeometry x="76" y="10.5" width="146" height="30" as="geometry"/>
                </mxCell>
                <mxCell id="53" value="" style="group" parent="1" vertex="1" connectable="0">
                    <mxGeometry x="662" y="361" width="222" height="51" as="geometry"/>
                </mxCell>
                <mxCell id="54" value="Azure OpenAI&#10;North Central US" style="shape=image;verticalLabelPosition=bottom;labelBackgroundColor=#33FF33;verticalAlign=top;aspect=fixed;imageAspect=0;image=data:image/svg+xml,PHN2ZyB4bWxucz0iaHR0cDovL3d3dy53My5vcmcvMjAwMC9zdmciIHZpZXdCb3g9IjAgMCAxOCAxOCIgaGVpZ2h0PSIxOCIgd2lkdGg9IjE4IiBpZD0idXVpZC1hZGJkYWU4ZS01YTQxLTQ2ZDEtOGMxOC1hYTczY2RiZmVlMzIiPjxkZWZzPjxyYWRpYWxHcmFkaWVudCBncmFkaWVudFVuaXRzPSJ1c2VyU3BhY2VPblVzZSIgZ3JhZGllbnRUcmFuc2Zvcm09InRyYW5zbGF0ZSgtMTc5MzkuMDMgMjAzNjguMDI5KSByb3RhdGUoNDUpIHNjYWxlKDI1LjA5MSAtMzQuMTQ5KSIgcj0iLjQ1IiBjeT0iNzkzLjE5OSIgY3g9Ii02Ny45ODEiIGlkPSJ1dWlkLTJhNzQwN2FhLWI3ODctNDhkZC1hOTZhLTBkODFhYjZlOTNiYiI+PHN0b3Agc3RvcC1jb2xvcj0iIzgzYjlmOSIgb2Zmc2V0PSIwIi8+PHN0b3Agc3RvcC1jb2xvcj0iIzAwNzhkNCIgb2Zmc2V0PSIxIi8+PC9yYWRpYWxHcmFkaWVudD48L2RlZnM+PHBhdGggc3Ryb2tlLXdpZHRoPSIwIiBmaWxsPSJ1cmwoI3V1aWQtMmE3NDA3YWEtYjc4Ny00OGRkLWE5NmEtMGQ4MWFiNmU5M2JiKSIgZD0ibTAsMi43djEyLjZjMCwxLjQ5MSwxLjIwOSwyLjcsMi43LDIuN2gxMi42YzEuNDkxLDAsMi43LTEuMjA5LDIuNy0yLjdWMi43YzAtMS40OTEtMS4yMDktMi43LTIuNy0yLjdIMi43QzEuMjA5LDAsMCwxLjIwOSwwLDIuN1pNMTAuOCwwdjMuNmMwLDMuOTc2LDMuMjI0LDcuMiw3LjIsNy4yaC0zLjZjLTMuOTc2LDAtNy4xOTksMy4yMjItNy4yLDcuMTk4di0zLjU5OGMwLTMuOTc2LTMuMjI0LTcuMi03LjItNy4yaDMuNmMzLjk3NiwwLDcuMi0zLjIyNCw3LjItNy4yWiIvPjwvc3ZnPg==;fontColor=#000000;" parent="53" vertex="1">
                    <mxGeometry width="51" height="51" as="geometry"/>
                </mxCell>
                <mxCell id="55" value="トークン制限(TPM)：8K&lt;br&gt;重み(Weight)：300" style="text;strokeColor=none;align=left;fillColor=none;html=1;verticalAlign=middle;whiteSpace=wrap;rounded=0;" parent="53" vertex="1">
                    <mxGeometry x="76" y="10.5" width="146" height="30" as="geometry"/>
                </mxCell>
                <mxCell id="56" value="" style="group" parent="1" vertex="1" connectable="0">
                    <mxGeometry x="662" y="488" width="222" height="51" as="geometry"/>
                </mxCell>
                <mxCell id="57" value="Azure OpenAI&#10;South Central US" style="shape=image;verticalLabelPosition=bottom;labelBackgroundColor=#CCFFCC;verticalAlign=top;aspect=fixed;imageAspect=0;image=data:image/svg+xml,PHN2ZyB4bWxucz0iaHR0cDovL3d3dy53My5vcmcvMjAwMC9zdmciIHZpZXdCb3g9IjAgMCAxOCAxOCIgaGVpZ2h0PSIxOCIgd2lkdGg9IjE4IiBpZD0idXVpZC1hZGJkYWU4ZS01YTQxLTQ2ZDEtOGMxOC1hYTczY2RiZmVlMzIiPjxkZWZzPjxyYWRpYWxHcmFkaWVudCBncmFkaWVudFVuaXRzPSJ1c2VyU3BhY2VPblVzZSIgZ3JhZGllbnRUcmFuc2Zvcm09InRyYW5zbGF0ZSgtMTc5MzkuMDMgMjAzNjguMDI5KSByb3RhdGUoNDUpIHNjYWxlKDI1LjA5MSAtMzQuMTQ5KSIgcj0iLjQ1IiBjeT0iNzkzLjE5OSIgY3g9Ii02Ny45ODEiIGlkPSJ1dWlkLTJhNzQwN2FhLWI3ODctNDhkZC1hOTZhLTBkODFhYjZlOTNiYiI+PHN0b3Agc3RvcC1jb2xvcj0iIzgzYjlmOSIgb2Zmc2V0PSIwIi8+PHN0b3Agc3RvcC1jb2xvcj0iIzAwNzhkNCIgb2Zmc2V0PSIxIi8+PC9yYWRpYWxHcmFkaWVudD48L2RlZnM+PHBhdGggc3Ryb2tlLXdpZHRoPSIwIiBmaWxsPSJ1cmwoI3V1aWQtMmE3NDA3YWEtYjc4Ny00OGRkLWE5NmEtMGQ4MWFiNmU5M2JiKSIgZD0ibTAsMi43djEyLjZjMCwxLjQ5MSwxLjIwOSwyLjcsMi43LDIuN2gxMi42YzEuNDkxLDAsMi43LTEuMjA5LDIuNy0yLjdWMi43YzAtMS40OTEtMS4yMDktMi43LTIuNy0yLjdIMi43QzEuMjA5LDAsMCwxLjIwOSwwLDIuN1pNMTAuOCwwdjMuNmMwLDMuOTc2LDMuMjI0LDcuMiw3LjIsNy4yaC0zLjZjLTMuOTc2LDAtNy4xOTksMy4yMjItNy4yLDcuMTk4di0zLjU5OGMwLTMuOTc2LTMuMjI0LTcuMi03LjItNy4yaDMuNmMzLjk3NiwwLDcuMi0zLjIyNCw3LjItNy4yWiIvPjwvc3ZnPg==;fontColor=#000000;" parent="56" vertex="1">
                    <mxGeometry width="51" height="51" as="geometry"/>
                </mxCell>
                <mxCell id="58" value="トークン制限(TPM)：8K&lt;br&gt;重み(Weight)：50" style="text;strokeColor=none;align=left;fillColor=none;html=1;verticalAlign=middle;whiteSpace=wrap;rounded=0;" parent="56" vertex="1">
                    <mxGeometry x="76" y="10.5" width="146" height="30" as="geometry"/>
                </mxCell>
                <mxCell id="59" value="63.2%" style="endArrow=classic;html=1;entryX=0;entryY=0.5;entryDx=0;entryDy=0;verticalAlign=bottom;exitX=1.015;exitY=0.167;exitDx=0;exitDy=0;exitPerimeter=0;strokeWidth=4;" parent="1" source="47" target="49" edge="1">
                    <mxGeometry x="0.0259" y="14" width="50" height="50" relative="1" as="geometry">
                        <mxPoint x="388" y="367" as="sourcePoint"/>
                        <mxPoint x="286.0250000000001" y="400.98" as="targetPoint"/>
                        <mxPoint as="offset"/>
                    </mxGeometry>
                </mxCell>
                <mxCell id="60" value="31.6%" style="endArrow=classic;html=1;entryX=0;entryY=0.5;entryDx=0;entryDy=0;verticalAlign=bottom;exitX=1.046;exitY=0.533;exitDx=0;exitDy=0;exitPerimeter=0;strokeWidth=2;" parent="1" source="47" target="54" edge="1">
                    <mxGeometry x="0.0259" y="14" width="50" height="50" relative="1" as="geometry">
                        <mxPoint x="405" y="389" as="sourcePoint"/>
                        <mxPoint x="672" y="273.5" as="targetPoint"/>
                        <mxPoint as="offset"/>
                    </mxGeometry>
                </mxCell>
                <mxCell id="61" value="5.3%" style="endArrow=classic;html=1;entryX=0;entryY=0.5;entryDx=0;entryDy=0;verticalAlign=bottom;exitX=1;exitY=0.8;exitDx=0;exitDy=0;exitPerimeter=0;dashed=1;" parent="1" source="47" target="57" edge="1">
                    <mxGeometry x="0.0259" y="14" width="50" height="50" relative="1" as="geometry">
                        <mxPoint x="354.99" y="400.98" as="sourcePoint"/>
                        <mxPoint x="672" y="396.5" as="targetPoint"/>
                        <mxPoint as="offset"/>
                    </mxGeometry>
                </mxCell>
            </root>
        </mxGraphModel>
    </diagram>
</mxfile>